<?xml version="1.0" standalone="no"?>
<!DOCTYPE svg PUBLIC "-//W3C//DTD SVG 1.1//EN" "http://www.w3.org/Graphics/SVG/1.1/DTD/svg11.dtd" >
<!--
2013-9-30: Created.
-->
<svg>
<metadata>
Created by iconfont
</metadata>
<defs>

<font id="iconfont" horiz-adv-x="1024" >
  <font-face
    font-family="iconfont"
    font-weight="500"
    font-stretch="normal"
    units-per-em="1024"
    ascent="896"
    descent="-128"
  />
    <missing-glyph />
    
    <glyph glyph-name="dingwei" unicode="&#58942;" d="M516.320553 830.086277C327.473365 829.240951 174.512778 674.914838 175.350878 486.045975c0.787526-177.21493 282.974557-496.596289 315.154731-532.417865a39.737529 39.737529 0 0 1 59.440119 0.2601c31.862273 36.110576 311.202653 357.991787 310.415127 535.213942-0.838101 188.861638-155.178664 341.822225-344.040302 340.984125z m2.196402-492.860961c-76.483906-0.339575-139.009102 61.614845-139.348677 138.105976-0.339575 76.491131 61.629295 139.001877 138.105976 139.334227 76.512806 0.3468 139.023552-61.60762 139.363127-138.091526 0.339575-76.498356-61.614845-139.001877-138.120426-139.348677z"  horiz-adv-x="1024" />

    
    <glyph glyph-name="changfangxing-empty" unicode="&#58884;" d="M601.6 829.44v-890.88H422.4V829.44h179.2M657.92 885.76H366.08v-1003.52h291.84V885.76z"  horiz-adv-x="1024" />

    
    <glyph glyph-name="changfangxing-fill" unicode="&#58883;" d="M386.38933333 889.17333333h251.22133334v-1010.34666666h-251.22133334zM607.57333333 859.136v-950.272H416.42666667V859.136h191.14666666M667.648 919.21066667H356.352v-1070.42133334h311.296V919.21066667z"  horiz-adv-x="1024" />

    
    <glyph glyph-name="left" unicode="&#58894;" d="M776.5 884c-16 16-41.8 16-57.8 0L247.5 412.9c-15.9-15.9-15.9-41.8 0-57.7L718.7-116c8-8 18.4-12 28.9-12 10.4 0 20.9 4 28.9 12 15.9 15.9 15.9 41.8 0 57.7L334.1 384 776.5 826.3c15.9 16 15.9 41.8 0 57.7z"  horiz-adv-x="1024" />

    
    <glyph glyph-name="xiazai" unicode="&#58895;" d="M513.3 896c-24.1 0-43.6-19.5-43.6-43.6v-680.1L173.1 468.9c-17 17-44.7 17-61.7 0s-17-44.6 0-61.7l371-371c2.1-2.1 4.3-3.9 6.8-5.5 0.1-0.1 0.3-0.2 0.5-0.3 2.2-1.4 4.6-2.7 7.1-3.7 0.2-0.1 0.4-0.1 0.5-0.2 2.4-1 5-1.7 7.6-2.2 0.1 0 0.3 0 0.4-0.1 2.6-0.5 5.3-0.8 8-0.8 0.8 0 1.6 0.1 2.4 0.1 0.4 0 0.8-0.1 1.2-0.1 11.2 0 22.3 4.3 30.8 12.8l371.1 371.1c17 17 17 44.6 0 61.7-17 17-44.7 17-61.7 0L557 168.6V852.4C557 876.5 537.4 896 513.3 896zM17.6-84.4c0-24.1 19.5-43.6 43.6-43.6h901.6c24.1 0 43.6 19.5 43.6 43.6s-19.5 43.6-43.6 43.6H61.2c-24.1 0-43.6-19.5-43.6-43.6z"  horiz-adv-x="1024" />

    
    <glyph glyph-name="right" unicode="&#58896;" d="M305.3 884c-16 16-41.8 16-57.8 0-15.9-15.9-15.9-41.8 0-57.7L689.9 384 247.5-58.299999999999955c-15.9-15.9-15.9-41.8 0-57.7 8-8 18.4-12 28.9-12s20.9 4 28.9 12l471.2 471.2c15.9 15.9 15.9 41.8 0 57.7L305.3 884z"  horiz-adv-x="1024" />

    
    <glyph glyph-name="duoxuankuang" unicode="&#58926;" d="M954.41084 879.536368 55.374372 879.536368c-29.640182 0-53.658759-24.031681-53.658759-53.671863l0-899.048564c0-29.639174 24.018577-53.669847 53.658759-53.669847l899.03546 0c29.66639 0 53.708151 24.030673 53.708151 53.669847L1008.117983 825.864505C1008.118991 855.504687 984.076222 879.536368 954.41084 879.536368zM954.41084-46.342079c0-14.818579-11.985097-26.84198-26.829884-26.84198L82.229455-73.184059c-14.820595 0-26.855084 12.023401-26.855084 26.84198L55.374372 799.022525c0 14.820595 12.03348 26.84198 26.855084 26.84198l845.351501 0c14.845795 0 26.829884-12.021385 26.829884-26.84198L954.41084-46.342079z"  horiz-adv-x="1024" />

    
    <glyph glyph-name="danxuan" unicode="&#58885;" d="M874.497076 747.22361C674.578801 944.817253 349.130447 944.817253 149.212172 747.22361-48.381471 547.305335-48.381471 221.856981 149.212172 21.938706c199.918275-199.918275 523.041998-199.918275 722.960273 0 199.918275 199.918275 199.918275 525.366629 2.324631 725.284904z m-34.869467-690.415437c-181.321226-181.321226-476.549376-181.321226-657.870601 0C0.435782 238.129398 0.435782 531.032917 184.081639 712.354143 365.402865 896 658.306383 896 839.627609 712.354143c183.645857-181.321226 183.645857-474.224745 0-655.54597z"  horiz-adv-x="1024" />

    
    <glyph glyph-name="shanchu-copy" unicode="&#58880;" d="M815.67451394 764.11851876H209.98249465c-55.75835284 0-100.95327217-13.57366582-100.95327218-56.68351485v-26.01504191h807.58475496v26.01504191c0.01380867 43.10985023-45.18111186 56.68351605-100.93946349 56.68351485M724.55282749 708.95392814L704.86203748 849.74445819c-3.82492854 27.50634879-29.66046128 49.97262965-57.4291701 49.97262965H378.23794988c-27.76870881 0-53.59043289-22.46627965-57.47059493-50.01405447l-19.69079121-140.80433873c-3.83873722-27.50634879 15.74158578-22.36962133 43.51029461-22.36962134h336.48329189c27.78251749 0.02761735 47.3628405-5.12291999 43.48267725 22.42485484z m-359.83330994 28.55578889l15.54826793 111.26815312h265.12143762l15.54826794-111.26815312H364.71951755zM832.50696343 618.48123741H193.16385382c-37.00653351 0-64.56811702-30.17137145-61.22648249-67.02601314l55.13697446-606.18912199c3.32782585-36.86845038 36.38515515-67.02601315 73.37788121-67.02601316h504.72493845c37.00653351 0 70.06386282 30.17137145 73.3778812 67.02601316l55.13697325 606.18912199c3.38306055 36.86845038-24.19233163 67.02601315-61.18505647 67.02601314zM378.23794988-51.58557984000004h-130.72420167L203.93441265 540.4499227700001h174.28972854V-51.58557984000004z m221.34878298 0H425.21415468V540.4499227700001h174.37257818V-51.58557984000004z m177.27234595 0h-129.42621143V540.4499227700001h172.56367779L776.85907881-51.58557984000004z"  horiz-adv-x="1024" />

    
    <glyph glyph-name="plus-radio" unicode="&#59190;" d="M512 896C229.2352 896 0 666.7648 0 384c0-282.7648 229.2352-512 512-512s512 229.2352 512 512C1024 666.7648 794.7648 896 512 896zM512-76.79999999999995C257.92-76.79999999999995 51.2 129.91999999999996 51.2 384S257.92 844.8 512 844.8s460.8-206.72 460.8-460.8S766.08-76.79999999999995 512-76.79999999999995zM512 384m-256 0a20 20 0 1 1 512 0 20 20 0 1 1-512 0Z"  horiz-adv-x="1024" />

    
    <glyph glyph-name="duoxuan" unicode="&#59191;" d="M397.714285 128C415.263245 128 432.812204 134.816422 446.201608 148.44927399999995L811.915891 520.812908C838.694701 548.078604 838.694701 592.285032 811.915891 619.5507279999999 785.137088 646.816424 741.720058 646.816424 714.941248 619.5507279999999L397.714285 296.55600100000004 309.058751 386.823455C282.279942 414.089151 238.862915 414.089151 212.084106 386.823455 185.305298 359.55775900000003 185.305298 315.35133199999996 212.084106 288.085636L349.226964 148.44927399999995C362.616368 134.816422 380.165327 128 397.714285 128ZM0 768.380142C0 838.862643 57.24888 896 127.619858 896L896.380141 896C966.862643 896 1024 838.75112 1024 768.380142L1024-0.3801409999999805C1024-70.86264300000005 966.751117-128 896.380141-128L127.619858-128C57.137357-128 0-70.75111700000002 0-0.3801409999999805L0 768.380142Z"  horiz-adv-x="1024" />

    
    <glyph glyph-name="iconfontcolor100-copy" unicode="&#58936;" d="M1006.4 19.600000000000023L585.6 831.872c-40.464 78.128-106.72 78.128-147.184 0L17.6 19.600000000000023c-40.464-78.128-1.6-142.064 86.4-142.064l816 0C1008-122.46400000000006 1046.88-58.52800000000002 1006.4 19.600000000000023zM460.816 582.832c0 28.256 22.912 51.184 51.184 51.184s51.216-22.944 51.216-51.184l0-345.632c0-28.256-22.944-51.184-51.216-51.184s-51.184 22.944-51.184 51.184L460.816 582.832zM512-9.168000000000006c-35.344 0-64 28.624-64 64 0 35.344 28.656 64 64 64s64-28.656 64-64C576 19.456000000000017 547.344-9.168000000000006 512-9.168000000000006z"  horiz-adv-x="1024" />

    
    <glyph glyph-name="tishi" unicode="&#58901;" d="M512.55653262 890.46834745c70.01255481 0 135.70208085-13.35213511 197.06625252-40.06222848 61.32691285-26.77296469 114.80997091-62.87775403 160.34205696-108.44127687 45.53208718-45.50647239 81.69974784-99.16650269 108.40984121-160.93002639 26.71009223-61.70065237 40.09366414-127.54153699 40.09366414-197.59251342 0-69.98810397-13.38357191-135.70208085-40.09366414-197.03481571-26.71009223-61.38978531-62.87775403-114.80997091-108.40984121-160.37349376-45.53208718-45.56352285-99.01398016-81.66831218-160.34205696-108.37840441-61.36533447-26.77296469-127.05369771-40.12510094-197.06625252-40.12510094-70.01953963 0-135.86042539 13.35213511-197.62394908 40.12510094-61.70065237 26.71009223-115.36766862 62.8148827-160.89859072 108.37840441-45.56235776 45.56352285-81.69974784 98.98254336-108.40984121 160.37349376-26.74152903 61.33273486-40.09250019 127.0478757-40.0925002 197.03481571 0 70.05097643 13.35097117 135.89186105 40.0925002 197.59251342 26.71009223 61.7635237 62.84631837 115.42471907 108.40984121 160.93002639 45.5309221 45.56352285 99.19793835 81.66831218 160.89859072 108.44127687C376.69610723 877.11621234 442.53699299 890.46834745 512.55653262 890.46834745M573.54812985 453.49444267c0 18.04890226-5.84359709 33.25575965-17.49819051 45.68344462-11.68719417 12.42768498-26.15239566 18.67645725-43.49340558 18.67645724-17.30841031 0-31.99599275-6.24877113-44.04993934-18.67645724-12.02833181-12.42768498-18.05588821-27.6345435-18.05588821-45.68344462l0-378.30624142c0-18.05588821 6.02755527-32.58512611 18.05588821-43.52484239 12.05394659-10.88266581 26.74152903-16.32108771 44.04993934-16.32108771 17.33984597 0 31.99599275 5.62121614 44.04993934 16.87762147 12.05394659 11.31345465 18.04890226 26.02665187 18.04890226 44.075553L573.54812985 453.49444267 573.54812985 453.49444267zM512.55653262 593.5265371c21.85498283 0 40.46041771 7.66688256 55.91992661 23.1205706 15.39663758 15.45368803 23.12057059 34.06610887 23.1205706 55.88849095s-7.72393301 40.49883933-23.1205706 55.88849095c-15.45951005 15.45951005-34.06610887 23.18344306-55.91992661 23.18344306-21.82238208 0-40.6501979-7.72393301-56.47762432-23.18344306-15.79599075-15.39081671-23.67710435-34.06610887-23.67710435-55.88849095s7.88227755-40.43480291 23.67710435-55.88849095C471.90633586 601.1922557099999 490.73415054 593.5265371 512.55653262 593.5265371"  horiz-adv-x="1024" />

    
    <glyph glyph-name="success" unicode="&#59196;" d="M512 896C229.004 896 0 666.996 0 384s229.004-512 512-512 512 229.004 512 512S794.996 896 512 896z m260.655-425.425L493.382 191.30200000000002c-5.586-5.586-13.033-9.31-21.411-9.31-10.24-1.861-20.48 0.932-27.927 8.379L268.102 367.244a30.906 30.906 0 0 0 0 43.752l14.894 14.895c12.102 12.102 31.651 12.102 43.753 0l141.498-141.498 244.83 244.829c12.101 12.102 31.65 12.102 43.752 0l15.826-14.895c12.101-12.102 12.101-31.65 0-43.752z"  horiz-adv-x="1024" />

    
    <glyph glyph-name="waitToSolve" unicode="&#58897;" d="M740.0064 383.9968H512.0032V611.99893333c0 30.40213333-20.2688 50.66773333-50.66773333 50.66773334-30.40213333 0-50.66773333-20.2656-50.66773334-50.66773334v-278.66346666c0-30.40533333 20.2656-50.66773333 50.66773334-50.66773334h278.67093333c30.39573333 0 50.66133333 20.2624 50.66133333 50.66773334 0 30.39893333-20.26666667 50.66133333-50.66133333 50.66133333zM512.0032 810.66666667c57.28746667 0 112.95146667-11.30773333 165.44533333-33.6096 50.7904-21.5776 96.48533333-52.4608 135.81546667-91.792 39.3312-39.3312 70.2144-85.0272 91.792-135.8176C927.35893333 496.95146667 938.66666667 441.28533333 938.66666667 383.9968c0-57.28746667-11.30773333-112.95146667-33.6096-165.4464-21.5776-50.7904-52.4608-96.48533333-91.792-135.81546667-39.33013333-39.3312-85.02506667-70.2144-135.81546667-91.792C624.95573333-31.358933330000013 569.29066667-42.66666667000004 512.0032-42.66666667000004c-57.28853333 0-112.9536 11.30773333-165.4496 33.6096-50.7904 21.5776-96.4864 52.4608-135.8176 91.792-39.3312 39.33013333-70.21546667 85.02613333-91.79306667 135.81546667C96.64106667 271.04533332999995 85.33333333 326.70933333000005 85.33333333 383.9968c0 57.28853333 11.30773333 112.95466667 33.61066667 165.45066667 21.5776 50.7904 52.46186667 96.4864 91.79306667 135.8176 39.33226667 39.3312 85.0272 70.2144 135.8176 91.792C399.0496 799.35893333 454.71466667 810.66666667 512.0032 810.66666667m0 80C233.33546667 890.66666667 5.33333333 662.66773333 5.33333333 383.9968 5.33333333 105.33226666999997 233.33546667-122.66666667000004 512.0032-122.66666667000004 790.66666667-122.66666667000004 1018.66666667 105.33226666999997 1018.66666667 383.9968 1018.66666667 662.66773333 790.66666667 890.66666667 512.0032 890.66666667z"  horiz-adv-x="1024" />

    
    <glyph glyph-name="noPass" unicode="&#59197;" d="M875.086452 742.269942C676.053818 941.302575 353.260522 941.302575 154.128323 742.269942s-199.032634-521.825929 0-720.958129 521.825929-199.032634 720.958129 0 199.032634 521.825929 0 720.958129zM725.836868 170.56139599999995c-9.757478-9.757478-25.488922-9.757478-35.246399 0L514.557604 346.59426099999996 338.624306 170.56139599999995c-9.757478-9.757478-25.488922-9.757478-35.2464 0s-9.757478 25.488922 0 35.2464l176.032865 176.032864-176.032865 175.933299c-9.757478 9.757478-9.757478 25.488922 0 35.246399 9.757478 9.757478 25.488922 9.757478 35.2464 0l176.032864-176.032865 176.032865 176.032865c9.757478 9.757478 25.488922 9.757478 35.246399 0 9.757478-9.757478 9.757478-25.488922 0-35.246399L549.804004 381.84065999999996 725.836868 205.80779600000005c9.657912-9.757478 9.657912-25.488922 0-35.2464z"  horiz-adv-x="1028" />

    
    <glyph glyph-name="eye-open" unicode="&#59479;" d="M961.3 372c0.1 4-27.6 100-82.1 168.1-37.6 47-83.8 84.4-137.3 111.2C675.7 684.6 598.3 701.3 512 701.3S348.3 684.5 282.1 651.3C228.6 624.5 182.4 587.1 144.8 540.2 90.1 472 62.6 376 62.7 372c-0.1-4 27.6-100.1 82.1-168.1 37.6-47 83.8-84.4 137.3-111.2 66.3-33.2 143.6-50.1 229.9-50.1 86.3 0 163.7 16.9 229.9 50.1 53.5 26.8 99.8 64.2 137.3 111.2C933.9 272 961.4 368 961.3 372zM832.4 241.39999999999998c-32.2-40.1-71.7-72.2-117.5-95.1-57.8-29-126.1-43.7-203-43.7-76.2 0-144 14.4-201.5 42.9-45.6 22.6-85 54.2-117.3 93.8C147.5 295.70000000000005 129 352.9 123.8 372c5.3 19.2 23.8 76.4 69.5 132.6 32.2 39.7 71.7 71.2 117.3 93.8 57.5 28.5 125.2 42.9 201.5 42.9s144-14.4 201.5-42.9c45.6-22.6 85-54.2 117.3-93.8 45.8-56.2 64.2-113.5 69.5-132.7C895.2 353.1 877.3 297.5 832.4 241.39999999999998L832.4 241.39999999999998zM512.6 551.3c-99.4 0-180-80.6-180-180s80.6-180 180-180 180 80.6 180 180S612 551.3 512.6 551.3zM512.6 251.29999999999995c-66.3 0-120 53.7-120 120s53.7 120 120 120 120-53.7 120-120S578.8 251.29999999999995 512.6 251.29999999999995z"  horiz-adv-x="1024" />

    
    <glyph glyph-name="eye-close" unicode="&#58893;" d="M941.677 504.29c9.338 14.006 6.225 32.681-6.225 43.575-14.006 10.894-32.681 7.781-43.575-6.225-1.557-1.556-174.3-205.426-379.728-205.426-199.2 0-379.727 205.426-381.283 206.982-10.895 12.45-31.125 14.006-43.576 3.113-12.45-10.894-14.006-31.125-3.113-43.576 3.113-4.668 40.463-46.687 99.6-93.375l-79.37-82.482c-12.45-12.45-10.893-32.681 1.557-43.575 3.113-6.225 10.894-9.338 18.676-9.338 7.78 0 15.562 3.113 21.787 9.338l85.594 88.706c40.463-28.013 88.707-54.47 141.62-73.144l-32.682-110.495c-4.668-17.118 4.67-34.237 21.788-38.906h9.337c14.006 0 26.457 9.338 29.569 23.344l32.681 110.495c24.9-4.669 51.357-7.782 77.813-7.782s52.913 3.113 77.814 7.782l32.68-108.939c3.114-14.006 17.12-23.343 29.57-23.343 3.113 0 6.225 0 7.782 1.556 17.118 4.67 26.456 21.787 21.788 38.906L649.099 300.41999999999996c52.914 18.676 101.157 45.132 141.62 73.144l84.038-87.15c6.225-6.225 14.006-9.338 21.787-9.338 7.781 0 15.563 3.113 21.787 9.337 12.45 12.451 12.45 31.125 1.557 43.576l-79.37 82.481c63.808 46.689 101.16 91.82 101.16 91.82z"  horiz-adv-x="1024" />

    
    <glyph glyph-name="yk_yuanquan" unicode="&#58881;" d="M512 830.01856c-245.91872 0-446.01856-200.09472-446.01856-446.01856 0-245.95456 200.064-446.01856 446.01856-446.01856s446.01856 200.064 446.01856 446.01856c0 245.91872-200.064 446.01856-446.01856 446.01856z m0-828.03712c-210.65728 0-382.01856 171.392-382.01856 382.01856 0 210.65728 171.36128 382.01856 382.01856 382.01856 210.62656 0 382.01856-171.36128 382.01856-382.01856 0-210.62656-171.392-382.01856-382.01856-382.01856z"  horiz-adv-x="1024" />

    
    <glyph glyph-name="yk_yuanquan_fill" unicode="&#58882;" d="M512 830.01856c-245.91872 0-446.01856-200.09472-446.01856-446.01856 0-245.95456 200.064-446.01856 446.01856-446.01856s446.01856 200.064 446.01856 446.01856c0 245.91872-200.064 446.01856-446.01856 446.01856z"  horiz-adv-x="1024" />

    


  </font>
</defs>
</svg>
